# xmcd
#
# Track frame offsets:
#	150
#	12442
#	25525
#	37742
#	50932
#	62537
#	74691
#	86730
#	99068
#	110866
#
# Disc length: 1647 seconds
#
# Revision: 0
# Processed by: cddbd v1.5.1PL0 Copyright (c) Steve Scherf et al.
# Submitted via: dBpowerAMP V4.0
#
DISCID=7f066d0a
DTITLE=Hank Williams - Honky Tonk Man
DYEAR=1900
DGENRE=
TTITLE0=Honky Tonkin'
TTITLE1=I Can't Get You Off  My Mind
TTITLE2=Lovesick Blues
TTITLE3=Mind Your Own Business
TTITLE4=I'm Satisfied With You
TTITLE5=Lost Highway
TTITLE6=The Blues Come Around
TTITLE7=Move It On Over
TTITLE8=I'll Be  A Bachelor 'Till I Die
TTITLE9=I'm A Long Gone Daddy
EXTD=
EXTT0=
EXTT1=
EXTT2=
EXTT3=
EXTT4=
EXTT5=
EXTT6=
EXTT7=
EXTT8=
EXTT9=
PLAYORDER=
